<?xml version="1.0" encoding="UTF-8" standalone="no" ?>
<!DOCTYPE svg PUBLIC "-//W3C//DTD SVG 1.1//EN" "http://www.w3.org/Graphics/SVG/1.1/DTD/svg11.dtd">
<svg xmlns="http://www.w3.org/2000/svg" xmlns:xlink="http://www.w3.org/1999/xlink" version="1.1" width="1080" height="1080" viewBox="0 0 1080 1080" xml:space="preserve">
<desc>Created with Fabric.js 4.2.0</desc>
<defs>
</defs>
<rect x="0" y="0" width="100%" height="100%" fill="transparent"></rect>
<g transform="matrix(1 0 0 1 540 540)" id="778fda0e-9e60-44f1-b522-393da5fac060"  >
<rect style="stroke: none; stroke-width: 1; stroke-dasharray: none; stroke-linecap: butt; stroke-dashoffset: 0; stroke-linejoin: miter; stroke-miterlimit: 4; fill: rgb(255,255,255); fill-rule: nonzero; opacity: 1; visibility: hidden;" vector-effect="non-scaling-stroke"  x="-540" y="-540" rx="0" ry="0" width="1080" height="1080" />
</g>
<g transform="matrix(1 0 0 1 540 540)" id="c74b81c4-ee11-471c-8d33-efaa3c0b93d3"  >
</g>
<g transform="matrix(1 0 0 1.78 540 483.75)" style="" id="c8c0b938-ec3f-415e-90ba-459c59dc85b9"  >
		<text xml:space="preserve" font-family="Courgette" font-size="47" font-style="normal" font-weight="400" style="stroke: none; stroke-width: 1; stroke-dasharray: none; stroke-linecap: butt; stroke-dashoffset: 0; stroke-linejoin: miter; stroke-miterlimit: 4; fill: rgb(246,246,246); fill-rule: nonzero; opacity: 1; white-space: pre;" ><tspan x="-413.42" y="14.76" >C</tspan><tspan x="-387.63" y="14.76" >o</tspan><tspan x="-362.76" y="14.76" >l</tspan><tspan x="-348.93" y="14.76" >e</tspan><tspan x="-326.06" y="14.76" >g</tspan><tspan x="-300.59" y="14.76" >i</tspan><tspan x="-286.44" y="14.76" >o</tspan><tspan x="-261.57" y="14.76" style="white-space: pre; "> </tspan><tspan x="-246.43" y="14.76" >V</tspan><tspan x="-218.11" y="14.76" >o</tspan><tspan x="-193.24" y="14.76" >c</tspan><tspan x="-170.67" y="14.76" >a</tspan><tspan x="-144.51" y="14.76" >c</tspan><tspan x="-121.93" y="14.76" >i</tspan><tspan x="-107.78" y="14.76" >o</tspan><tspan x="-82.91" y="14.76" >n</tspan><tspan x="-55.84" y="14.76" >a</tspan><tspan x="-29.68" y="14.76" >l</tspan><tspan x="-15.85" y="14.76" style="white-space: pre; "> </tspan><tspan x="-0.71" y="14.76" >M</tspan><tspan x="43.78" y="14.76" >o</tspan><tspan x="68.65" y="14.76" >n</tspan><tspan x="95.73" y="14.76" >s</tspan><tspan x="116.33" y="14.76" >e</tspan><tspan x="139.2" y="14.76" >ñ</tspan><tspan x="166.28" y="14.76" >o</tspan><tspan x="191.15" y="14.76" >r</tspan><tspan x="211.01" y="14.76" style="white-space: pre; "> </tspan><tspan x="226.15" y="14.76" >S</tspan><tspan x="249.14" y="14.76" >a</tspan><tspan x="275.3" y="14.76" >n</tspan><tspan x="302.37" y="14.76" >a</tspan><tspan x="328.53" y="14.76" >b</tspan><tspan x="353.95" y="14.76" >r</tspan><tspan x="373.82" y="14.76" >i</tspan><tspan x="387.97" y="14.76" >a</tspan></text>
</g>
</svg>