<?xml version="1.0" standalone="no"?><svg xmlns="http://www.w3.org/2000/svg" viewBox="0 0 1440 320"><path fill="#d7d8d6" fill-opacity="1" d="M0,192L30,192C60,192,120,192,180,160C240,128,300,64,360,80C420,96,480,192,540,208C600,224,660,160,720,144C780,128,840,160,900,181.3C960,203,1020,213,1080,202.7C1140,192,1200,160,1260,144C1320,128,1380,128,1410,128L1440,128L1440,320L1410,320C1380,320,1320,320,1260,320C1200,320,1140,320,1080,320C1020,320,960,320,900,320C840,320,780,320,720,320C660,320,600,320,540,320C480,320,420,320,360,320C300,320,240,320,180,320C120,320,60,320,30,320L0,320Z"></path></svg>