<svg id="visual" viewBox="0 0 900 600" width="900" height="600" xmlns="http://www.w3.org/2000/svg" xmlns:xlink="http://www.w3.org/1999/xlink" version="1.1"><path d="M0 205L15 209C30 213 60 221 90 213C120 205 150 181 180 165C210 149 240 141 270 130C300 119 330 105 360 113C390 121 420 151 450 170C480 189 510 197 540 211C570 225 600 245 630 242C660 239 690 213 720 225C750 237 780 287 810 276C840 265 870 193 885 157L900 121L900 0L885 0C870 0 840 0 810 0C780 0 750 0 720 0C690 0 660 0 630 0C600 0 570 0 540 0C510 0 480 0 450 0C420 0 390 0 360 0C330 0 300 0 270 0C240 0 210 0 180 0C150 0 120 0 90 0C60 0 30 0 15 0L0 0Z" fill="#cc1b29"></path><path d="M0 367L15 353C30 339 60 311 90 287C120 263 150 243 180 229C210 215 240 207 270 199C300 191 330 183 360 194C390 205 420 235 450 247C480 259 510 253 540 260C570 267 600 287 630 296C660 305 690 303 720 315C750 327 780 353 810 342C840 331 870 283 885 259L900 235L900 119L885 155C870 191 840 263 810 274C780 285 750 235 720 223C690 211 660 237 630 240C600 243 570 223 540 209C510 195 480 187 450 168C420 149 390 119 360 111C330 103 300 117 270 128C240 139 210 147 180 163C150 179 120 203 90 211C60 219 30 211 15 207L0 203Z" fill="#c66a2e"></path><path d="M0 499L15 478C30 457 60 415 90 382C120 349 150 325 180 311C210 297 240 293 270 289C300 285 330 281 360 284C390 287 420 297 450 311C480 325 510 343 540 363C570 383 600 405 630 409C660 413 690 399 720 402C750 405 780 425 810 406C840 387 870 329 885 300L900 271L900 233L885 257C870 281 840 329 810 340C780 351 750 325 720 313C690 301 660 303 630 294C600 285 570 265 540 258C510 251 480 257 450 245C420 233 390 203 360 192C330 181 300 189 270 197C240 205 210 213 180 227C150 241 120 261 90 285C60 309 30 337 15 351L0 365Z" fill="#be9859"></path><path d="M0 547L15 536C30 525 60 503 90 472C120 441 150 401 180 374C210 347 240 333 270 324C300 315 330 311 360 327C390 343 420 379 450 398C480 417 510 419 540 435C570 451 600 481 630 493C660 505 690 499 720 499C750 499 780 505 810 480C840 455 870 399 885 371L900 343L900 269L885 298C870 327 840 385 810 404C780 423 750 403 720 400C690 397 660 411 630 407C600 403 570 381 540 361C510 341 480 323 450 309C420 295 390 285 360 282C330 279 300 283 270 287C240 291 210 295 180 309C150 323 120 347 90 380C60 413 30 455 15 476L0 497Z" fill="#bfbc97"></path><path d="M0 601L15 601C30 601 60 601 90 601C120 601 150 601 180 601C210 601 240 601 270 601C300 601 330 601 360 601C390 601 420 601 450 601C480 601 510 601 540 601C570 601 600 601 630 601C660 601 690 601 720 601C750 601 780 601 810 601C840 601 870 601 885 601L900 601L900 341L885 369C870 397 840 453 810 478C780 503 750 497 720 497C690 497 660 503 630 491C600 479 570 449 540 433C510 417 480 415 450 396C420 377 390 341 360 325C330 309 300 313 270 322C240 331 210 345 180 372C150 399 120 439 90 470C60 501 30 523 15 534L0 545Z" fill="#d7d8d6"></path></svg>