<svg id="visual" viewBox="0 0 900 600" width="900" height="600" xmlns="http://www.w3.org/2000/svg" xmlns:xlink="http://www.w3.org/1999/xlink" version="1.1"><rect x="0" y="0" width="900" height="600" fill="#001220"></rect><g fill="#d7d8d6"><circle r="14" cx="883" cy="89"></circle><circle r="1" cx="117" cy="576"></circle><circle r="10" cx="46" cy="426"></circle><circle r="9" cx="875" cy="230"></circle><circle r="2" cx="371" cy="435"></circle><circle r="1" cx="544" cy="74"></circle><circle r="9" cx="520" cy="532"></circle><circle r="4" cx="725" cy="15"></circle><circle r="9" cx="877" cy="140"></circle><circle r="7" cx="25" cy="209"></circle><circle r="5" cx="796" cy="150"></circle><circle r="10" cx="199" cy="220"></circle><circle r="0" cx="80" cy="501"></circle><circle r="9" cx="673" cy="587"></circle><circle r="6" cx="676" cy="522"></circle><circle r="2" cx="406" cy="324"></circle><circle r="9" cx="432" cy="311"></circle><circle r="10" cx="208" cy="411"></circle><circle r="10" cx="609" cy="290"></circle><circle r="11" cx="242" cy="173"></circle><circle r="8" cx="230" cy="261"></circle><circle r="11" cx="362" cy="508"></circle><circle r="11" cx="106" cy="254"></circle><circle r="4" cx="489" cy="382"></circle><circle r="8" cx="298" cy="518"></circle><circle r="0" cx="784" cy="382"></circle><circle r="4" cx="835" cy="540"></circle><circle r="3" cx="764" cy="524"></circle><circle r="11" cx="593" cy="556"></circle></g></svg>