<svg id="visual" viewBox="0 0 900 600" width="900" height="600" xmlns="http://www.w3.org/2000/svg" xmlns:xlink="http://www.w3.org/1999/xlink" version="1.1"><rect x="0" y="0" width="900" height="600" fill="#d7d8d6"></rect><path d="M0 443L129 330L257 411L386 358L514 417L643 487L771 416L900 355L900 0L771 0L643 0L514 0L386 0L257 0L129 0L0 0Z" fill="#be9859"></path><path d="M0 263L129 296L257 287L386 322L514 312L643 352L771 314L900 418L900 0L771 0L643 0L514 0L386 0L257 0L129 0L0 0Z" fill="#c28340"></path><path d="M0 273L129 203L257 277L386 224L514 260L643 311L771 318L900 261L900 0L771 0L643 0L514 0L386 0L257 0L129 0L0 0Z" fill="#c66a2e"></path><path d="M0 151L129 222L257 121L386 121L514 187L643 186L771 143L900 158L900 0L771 0L643 0L514 0L386 0L257 0L129 0L0 0Z" fill="#ca4c26"></path><path d="M0 114L129 89L257 148L386 71L514 112L643 84L771 142L900 143L900 0L771 0L643 0L514 0L386 0L257 0L129 0L0 0Z" fill="#cc1b29"></path></svg>