<svg id="visual" viewBox="0 0 900 600" width="900" height="600" xmlns="http://www.w3.org/2000/svg" xmlns:xlink="http://www.w3.org/1999/xlink" version="1.1"><path d="M0 334L16.7 316.3C33.3 298.7 66.7 263.3 100 245.2C133.3 227 166.7 226 200 235.3C233.3 244.7 266.7 264.3 300 271.8C333.3 279.3 366.7 274.7 400 266.2C433.3 257.7 466.7 245.3 500 251.7C533.3 258 566.7 283 600 288.5C633.3 294 666.7 280 700 266.2C733.3 252.3 766.7 238.7 800 230.7C833.3 222.7 866.7 220.3 883.3 219.2L900 218L900 601L883.3 601C866.7 601 833.3 601 800 601C766.7 601 733.3 601 700 601C666.7 601 633.3 601 600 601C566.7 601 533.3 601 500 601C466.7 601 433.3 601 400 601C366.7 601 333.3 601 300 601C266.7 601 233.3 601 200 601C166.7 601 133.3 601 100 601C66.7 601 33.3 601 16.7 601L0 601Z" fill="#8c232c"></path><path d="M0 378L16.7 361.5C33.3 345 66.7 312 100 304.8C133.3 297.7 166.7 316.3 200 323.8C233.3 331.3 266.7 327.7 300 336.5C333.3 345.3 366.7 366.7 400 368.5C433.3 370.3 466.7 352.7 500 343.5C533.3 334.3 566.7 333.7 600 328.3C633.3 323 666.7 313 700 302.7C733.3 292.3 766.7 281.7 800 299C833.3 316.3 866.7 361.7 883.3 384.3L900 407L900 601L883.3 601C866.7 601 833.3 601 800 601C766.7 601 733.3 601 700 601C666.7 601 633.3 601 600 601C566.7 601 533.3 601 500 601C466.7 601 433.3 601 400 601C366.7 601 333.3 601 300 601C266.7 601 233.3 601 200 601C166.7 601 133.3 601 100 601C66.7 601 33.3 601 16.7 601L0 601Z" fill="#9c222c"></path><path d="M0 343L16.7 344.5C33.3 346 66.7 349 100 365C133.3 381 166.7 410 200 414.2C233.3 418.3 266.7 397.7 300 394.5C333.3 391.3 366.7 405.7 400 399.3C433.3 393 466.7 366 500 353C533.3 340 566.7 341 600 346.5C633.3 352 666.7 362 700 363.2C733.3 364.3 766.7 356.7 800 367.8C833.3 379 866.7 409 883.3 424L900 439L900 601L883.3 601C866.7 601 833.3 601 800 601C766.7 601 733.3 601 700 601C666.7 601 633.3 601 600 601C566.7 601 533.3 601 500 601C466.7 601 433.3 601 400 601C366.7 601 333.3 601 300 601C266.7 601 233.3 601 200 601C166.7 601 133.3 601 100 601C66.7 601 33.3 601 16.7 601L0 601Z" fill="#ac202c"></path><path d="M0 468L16.7 462.7C33.3 457.3 66.7 446.7 100 441.5C133.3 436.3 166.7 436.7 200 439C233.3 441.3 266.7 445.7 300 448.5C333.3 451.3 366.7 452.7 400 446.2C433.3 439.7 466.7 425.3 500 432.3C533.3 439.3 566.7 467.7 600 478.8C633.3 490 666.7 484 700 472.7C733.3 461.3 766.7 444.7 800 433.5C833.3 422.3 866.7 416.7 883.3 413.8L900 411L900 601L883.3 601C866.7 601 833.3 601 800 601C766.7 601 733.3 601 700 601C666.7 601 633.3 601 600 601C566.7 601 533.3 601 500 601C466.7 601 433.3 601 400 601C366.7 601 333.3 601 300 601C266.7 601 233.3 601 200 601C166.7 601 133.3 601 100 601C66.7 601 33.3 601 16.7 601L0 601Z" fill="#bc1e2b"></path><path d="M0 491L16.7 493.3C33.3 495.7 66.7 500.3 100 506C133.3 511.7 166.7 518.3 200 518.8C233.3 519.3 266.7 513.7 300 512C333.3 510.3 366.7 512.7 400 512.8C433.3 513 466.7 511 500 506.8C533.3 502.7 566.7 496.3 600 498.5C633.3 500.7 666.7 511.3 700 518C733.3 524.7 766.7 527.3 800 526C833.3 524.7 866.7 519.3 883.3 516.7L900 514L900 601L883.3 601C866.7 601 833.3 601 800 601C766.7 601 733.3 601 700 601C666.7 601 633.3 601 600 601C566.7 601 533.3 601 500 601C466.7 601 433.3 601 400 601C366.7 601 333.3 601 300 601C266.7 601 233.3 601 200 601C166.7 601 133.3 601 100 601C66.7 601 33.3 601 16.7 601L0 601Z" fill="#cc1b29"></path></svg>